<?xml version="1.0" encoding="UTF-8" standalone="no"?>
<!DOCTYPE svg PUBLIC "-//W3C//DTD SVG 1.1//EN"
 "http://www.w3.org/Graphics/SVG/1.1/DTD/svg11.dtd">
<!-- Generated by graphviz version 14.1.2 (20260126.1125)
 -->
<!-- Title: pipeline Pages: 1 -->
<svg width="663pt" height="723pt"
 viewBox="0.00 0.00 663.00 723.00" xmlns="http://www.w3.org/2000/svg" xmlns:xlink="http://www.w3.org/1999/xlink">
<g id="graph0" class="graph" transform="scale(1 1) rotate(0) translate(4 719.2)">
<title>pipeline</title>
<polygon fill="white" stroke="none" points="-4,4 -4,-719.2 659.42,-719.2 659.42,4 -4,4"/>
<text xml:space="preserve" text-anchor="middle" x="327.71" y="-692.2" font-family="Helvetica,sans-Serif" font-size="20.00">Assembly Repeat Annotation Pipeline</text>
<text xml:space="preserve" text-anchor="middle" x="327.71" y="-668.2" font-family="Helvetica,sans-Serif" font-size="20.00">(stage overview — hover any box for its rules)</text>
<!-- Input preparation -->
<g id="node1" class="node">
<title>Input preparation</title>
<g id="a_node1"><a xlink:title="clean_genome_fasta — Clean FASTA headers by removing everything after the first whitespace character.&#10;index_genome_fasta — Create FASTA index (.fai) for the cleaned genome.&#10;calculate_seqlengths — (no description)">
<path fill="#e8eef7" stroke="#555555" stroke-width="1.2" d="M513.3,-659.2C513.3,-659.2 378.63,-659.2 378.63,-659.2 372.63,-659.2 366.63,-653.2 366.63,-647.2 366.63,-647.2 366.63,-623.8 366.63,-623.8 366.63,-617.8 372.63,-611.8 378.63,-611.8 378.63,-611.8 513.3,-611.8 513.3,-611.8 519.3,-611.8 525.3,-617.8 525.3,-623.8 525.3,-623.8 525.3,-647.2 525.3,-647.2 525.3,-653.2 519.3,-659.2 513.3,-659.2"/>
<text xml:space="preserve" text-anchor="middle" x="445.96" y="-639.65" font-family="Helvetica,sans-Serif" font-size="13.00">1. Input preparation</text>
<text xml:space="preserve" text-anchor="middle" x="445.96" y="-623.15" font-family="Helvetica,sans-Serif" font-size="13.00">(3 rules)</text>
</a>
</g>
</g>
<!-- DANTE protein&#45;domain annotation -->
<g id="node2" class="node">
<title>DANTE protein&#45;domain annotation</title>
<g id="a_node2"><a xlink:title="dante — (no description)&#10;filter_dante — (no description)">
<path fill="#dce9d5" stroke="#555555" stroke-width="1.2" d="M480.17,-571.8C480.17,-571.8 233.75,-571.8 233.75,-571.8 227.75,-571.8 221.75,-565.8 221.75,-559.8 221.75,-559.8 221.75,-536.4 221.75,-536.4 221.75,-530.4 227.75,-524.4 233.75,-524.4 233.75,-524.4 480.17,-524.4 480.17,-524.4 486.17,-524.4 492.17,-530.4 492.17,-536.4 492.17,-536.4 492.17,-559.8 492.17,-559.8 492.17,-565.8 486.17,-571.8 480.17,-571.8"/>
<text xml:space="preserve" text-anchor="middle" x="356.96" y="-552.25" font-family="Helvetica,sans-Serif" font-size="13.00">2. DANTE protein&#45;domain annotation</text>
<text xml:space="preserve" text-anchor="middle" x="356.96" y="-535.75" font-family="Helvetica,sans-Serif" font-size="13.00">(2 rules)</text>
</a>
</g>
</g>
<!-- Input preparation&#45;&gt;DANTE protein&#45;domain annotation -->
<g id="edge1" class="edge">
<title>Input preparation&#45;&gt;DANTE protein&#45;domain annotation</title>
<path fill="none" stroke="#777777" stroke-width="1.3" d="M422.11,-611.61C411.72,-601.64 399.4,-589.82 388.28,-579.16"/>
<polygon fill="#777777" stroke="#777777" stroke-width="1.3" points="390.32,-577.23 382.61,-573.71 386.44,-581.27 390.32,-577.23"/>
</g>
<!-- Tandem repeats (TideCluster) -->
<g id="node6" class="node">
<title>Tandem repeats (TideCluster)</title>
<g id="a_node6"><a xlink:title="tidecluster_long — (no description)&#10;tidecluster_short — (no description)&#10;tidecluster_reannotate — (no description)&#10;merge_tidecluster_default_and_short — (no description)">
<path fill="#d6ecec" stroke="#555555" stroke-width="1.2" d="M643.42,-397C643.42,-397 428.5,-397 428.5,-397 422.5,-397 416.5,-391 416.5,-385 416.5,-385 416.5,-361.6 416.5,-361.6 416.5,-355.6 422.5,-349.6 428.5,-349.6 428.5,-349.6 643.42,-349.6 643.42,-349.6 649.42,-349.6 655.42,-355.6 655.42,-361.6 655.42,-361.6 655.42,-385 655.42,-385 655.42,-391 649.42,-397 643.42,-397"/>
<text xml:space="preserve" text-anchor="middle" x="535.96" y="-377.45" font-family="Helvetica,sans-Serif" font-size="13.00">6. Tandem repeats (TideCluster)</text>
<text xml:space="preserve" text-anchor="middle" x="535.96" y="-360.95" font-family="Helvetica,sans-Serif" font-size="13.00">(4 rules)</text>
</a>
</g>
</g>
<!-- Input preparation&#45;&gt;Tandem repeats (TideCluster) -->
<g id="edge2" class="edge">
<title>Input preparation&#45;&gt;Tandem repeats (TideCluster)</title>
<path fill="none" stroke="#777777" stroke-width="1.3" d="M475.32,-611.49C487.04,-600.71 499.5,-586.91 506.96,-571.8 533.22,-518.63 537.33,-448.31 537.17,-407.51"/>
<polygon fill="#777777" stroke="#777777" stroke-width="1.3" points="539.97,-407.49 537.07,-399.53 534.37,-407.56 539.97,-407.49"/>
</g>
<!-- LTR retrotransposons (DANTE_LTR) -->
<g id="node3" class="node">
<title>LTR retrotransposons (DANTE_LTR)</title>
<g id="a_node3"><a xlink:title="dante_ltr — (no description)&#10;make_library_of_ltrs — (no description)">
<path fill="#f6e7cf" stroke="#555555" stroke-width="1.2" d="M259.92,-484.4C259.92,-484.4 12,-484.4 12,-484.4 6,-484.4 0,-478.4 0,-472.4 0,-472.4 0,-449 0,-449 0,-443 6,-437 12,-437 12,-437 259.92,-437 259.92,-437 265.92,-437 271.92,-443 271.92,-449 271.92,-449 271.92,-472.4 271.92,-472.4 271.92,-478.4 265.92,-484.4 259.92,-484.4"/>
<text xml:space="preserve" text-anchor="middle" x="135.96" y="-464.85" font-family="Helvetica,sans-Serif" font-size="13.00">3. LTR retrotransposons (DANTE_LTR)</text>
<text xml:space="preserve" text-anchor="middle" x="135.96" y="-448.35" font-family="Helvetica,sans-Serif" font-size="13.00">(2 rules)</text>
</a>
</g>
</g>
<!-- DANTE protein&#45;domain annotation&#45;&gt;LTR retrotransposons (DANTE_LTR) -->
<g id="edge3" class="edge">
<title>DANTE protein&#45;domain annotation&#45;&gt;LTR retrotransposons (DANTE_LTR)</title>
<path fill="none" stroke="#777777" stroke-width="1.3" d="M296.86,-523.88C268.48,-512.91 234.46,-499.76 205.02,-488.39"/>
<polygon fill="#777777" stroke="#777777" stroke-width="1.3" points="206.35,-485.9 197.88,-485.63 204.33,-491.12 206.35,-485.9"/>
</g>
<!-- LINEs (DANTE_LINE) -->
<g id="node5" class="node">
<title>LINEs (DANTE_LINE)</title>
<g id="a_node5"><a xlink:title="dante_line — (no description)">
<path fill="#e7dced" stroke="#555555" stroke-width="1.2" d="M464.55,-484.4C464.55,-484.4 313.38,-484.4 313.38,-484.4 307.38,-484.4 301.38,-478.4 301.38,-472.4 301.38,-472.4 301.38,-449 301.38,-449 301.38,-443 307.38,-437 313.38,-437 313.38,-437 464.55,-437 464.55,-437 470.55,-437 476.55,-443 476.55,-449 476.55,-449 476.55,-472.4 476.55,-472.4 476.55,-478.4 470.55,-484.4 464.55,-484.4"/>
<text xml:space="preserve" text-anchor="middle" x="388.96" y="-464.85" font-family="Helvetica,sans-Serif" font-size="13.00">5. LINEs (DANTE_LINE)</text>
<text xml:space="preserve" text-anchor="middle" x="388.96" y="-448.35" font-family="Helvetica,sans-Serif" font-size="13.00">(1 rule)</text>
</a>
</g>
</g>
<!-- DANTE protein&#45;domain annotation&#45;&gt;LINEs (DANTE_LINE) -->
<g id="edge4" class="edge">
<title>DANTE protein&#45;domain annotation&#45;&gt;LINEs (DANTE_LINE)</title>
<path fill="none" stroke="#777777" stroke-width="1.3" d="M365.54,-524.21C368.99,-515 373.03,-504.21 376.78,-494.21"/>
<polygon fill="#777777" stroke="#777777" stroke-width="1.3" points="379.37,-495.26 379.56,-486.79 374.13,-493.3 379.37,-495.26"/>
</g>
<!-- TIR DNA transposons (DANTE_TIR) -->
<g id="node4" class="node">
<title>TIR DNA transposons (DANTE_TIR)</title>
<g id="a_node4"><a xlink:title="dante_tir — (no description)&#10;dante_tir_fallback — Fallback TIR detection using TPase domain flanking&#45;region analysis.&#10;merge_dante_tir_with_fallback — Merge primary DANTE_TIR and fallback annotations.&#10;make_tir_combined_library — Build the TIR repeat library from primary DANTE_TIR elements only.&#10;build_fallback_tir_library — Build the optional DANTE_TIR_FALLBACK&#45;derived library.">
<path fill="#f3d9d5" stroke="#555555" stroke-width="1.2" d="M287.8,-397C287.8,-397 42.12,-397 42.12,-397 36.12,-397 30.12,-391 30.12,-385 30.12,-385 30.12,-361.6 30.12,-361.6 30.12,-355.6 36.12,-349.6 42.12,-349.6 42.12,-349.6 287.8,-349.6 287.8,-349.6 293.8,-349.6 299.8,-355.6 299.8,-361.6 299.8,-361.6 299.8,-385 299.8,-385 299.8,-391 293.8,-397 287.8,-397"/>
<text xml:space="preserve" text-anchor="middle" x="164.96" y="-377.45" font-family="Helvetica,sans-Serif" font-size="13.00">4. TIR DNA transposons (DANTE_TIR)</text>
<text xml:space="preserve" text-anchor="middle" x="164.96" y="-360.95" font-family="Helvetica,sans-Serif" font-size="13.00">(5 rules)</text>
</a>
</g>
</g>
<!-- LTR retrotransposons (DANTE_LTR)&#45;&gt;TIR DNA transposons (DANTE_TIR) -->
<g id="edge5" class="edge">
<title>LTR retrotransposons (DANTE_LTR)&#45;&gt;TIR DNA transposons (DANTE_TIR)</title>
<path fill="none" stroke="#777777" stroke-width="1.3" d="M143.73,-436.81C146.86,-427.6 150.52,-416.81 153.92,-406.81"/>
<polygon fill="#777777" stroke="#777777" stroke-width="1.3" points="156.51,-407.88 156.43,-399.41 151.21,-406.08 156.51,-407.88"/>
</g>
<!-- Repeat library construction -->
<g id="node7" class="node">
<title>Repeat library construction</title>
<g id="a_node7"><a xlink:title="make_subclass_2_library — (no description)&#10;filter_ltr_rt_library — (no description)&#10;concatenate_libraries — (no description)&#10;reduce_library — Per&#45;classification CAP3 / mmseqs2 dedup of the combined library.">
<path fill="#ede3d0" stroke="#555555" stroke-width="1.2" d="M472.55,-309.6C472.55,-309.6 273.38,-309.6 273.38,-309.6 267.38,-309.6 261.38,-303.6 261.38,-297.6 261.38,-297.6 261.38,-274.2 261.38,-274.2 261.38,-268.2 267.38,-262.2 273.38,-262.2 273.38,-262.2 472.55,-262.2 472.55,-262.2 478.55,-262.2 484.55,-268.2 484.55,-274.2 484.55,-274.2 484.55,-297.6 484.55,-297.6 484.55,-303.6 478.55,-309.6 472.55,-309.6"/>
<text xml:space="preserve" text-anchor="middle" x="372.96" y="-290.05" font-family="Helvetica,sans-Serif" font-size="13.00">7. Repeat library construction</text>
<text xml:space="preserve" text-anchor="middle" x="372.96" y="-273.55" font-family="Helvetica,sans-Serif" font-size="13.00">(4 rules)</text>
</a>
</g>
</g>
<!-- TIR DNA transposons (DANTE_TIR)&#45;&gt;Repeat library construction -->
<g id="edge6" class="edge">
<title>TIR DNA transposons (DANTE_TIR)&#45;&gt;Repeat library construction</title>
<path fill="none" stroke="#777777" stroke-width="1.3" d="M221.52,-349.08C248,-338.2 279.7,-325.19 307.24,-313.88"/>
<polygon fill="#777777" stroke="#777777" stroke-width="1.3" points="308.25,-316.49 314.59,-310.87 306.12,-311.31 308.25,-316.49"/>
</g>
<!-- LINEs (DANTE_LINE)&#45;&gt;Repeat library construction -->
<g id="edge7" class="edge">
<title>LINEs (DANTE_LINE)&#45;&gt;Repeat library construction</title>
<path fill="none" stroke="#777777" stroke-width="1.3" d="M386.84,-436.75C384.05,-406.67 379.15,-353.72 375.98,-319.49"/>
<polygon fill="#777777" stroke="#777777" stroke-width="1.3" points="378.8,-319.61 375.27,-311.9 373.22,-320.12 378.8,-319.61"/>
</g>
<!-- RepeatMasker similarity annotation -->
<g id="node8" class="node">
<title>RepeatMasker similarity annotation</title>
<g id="a_node8"><a xlink:title="repeatmasker — (no description)&#10;subtract_satellites_from_rm — (no description)&#10;merge_rm_and_dante — (no description)">
<path fill="#f1d9e6" stroke="#555555" stroke-width="1.2" d="M577.92,-222.2C577.92,-222.2 324,-222.2 324,-222.2 318,-222.2 312,-216.2 312,-210.2 312,-210.2 312,-186.8 312,-186.8 312,-180.8 318,-174.8 324,-174.8 324,-174.8 577.92,-174.8 577.92,-174.8 583.92,-174.8 589.92,-180.8 589.92,-186.8 589.92,-186.8 589.92,-210.2 589.92,-210.2 589.92,-216.2 583.92,-222.2 577.92,-222.2"/>
<text xml:space="preserve" text-anchor="middle" x="450.96" y="-202.65" font-family="Helvetica,sans-Serif" font-size="13.00">8. RepeatMasker similarity annotation</text>
<text xml:space="preserve" text-anchor="middle" x="450.96" y="-186.15" font-family="Helvetica,sans-Serif" font-size="13.00">(3 rules)</text>
</a>
</g>
</g>
<!-- Tandem repeats (TideCluster)&#45;&gt;RepeatMasker similarity annotation -->
<g id="edge8" class="edge">
<title>Tandem repeats (TideCluster)&#45;&gt;RepeatMasker similarity annotation</title>
<path fill="none" stroke="#777777" stroke-width="1.3" d="M530.53,-349.05C524.64,-326.12 514.02,-290.51 498.96,-262.2 493.07,-251.12 485.25,-239.95 477.64,-230.17"/>
<polygon fill="#777777" stroke="#777777" stroke-width="1.3" points="480.04,-228.68 472.86,-224.18 475.67,-232.18 480.04,-228.68"/>
</g>
<!-- Repeat library construction&#45;&gt;RepeatMasker similarity annotation -->
<g id="edge9" class="edge">
<title>Repeat library construction&#45;&gt;RepeatMasker similarity annotation</title>
<path fill="none" stroke="#777777" stroke-width="1.3" d="M393.86,-262.01C402.88,-252.14 413.56,-240.45 423.23,-229.86"/>
<polygon fill="#777777" stroke="#777777" stroke-width="1.3" points="425.07,-231.99 428.4,-224.2 420.94,-228.22 425.07,-231.99"/>
</g>
<!-- Unified annotation -->
<g id="node9" class="node">
<title>Unified annotation</title>
<g id="a_node9"><a xlink:title="make_unified_annotation — Produce a single, tier&#45;prioritised repeat annotation GFF3 from all pipeline layers.&#10;validate_classifications — Fail fast if any upstream tool emits a classification not listed in">
<path fill="#dfe7ee" stroke="#555555" stroke-width="1.2" d="M522.05,-134.8C522.05,-134.8 379.88,-134.8 379.88,-134.8 373.88,-134.8 367.88,-128.8 367.88,-122.8 367.88,-122.8 367.88,-99.4 367.88,-99.4 367.88,-93.4 373.88,-87.4 379.88,-87.4 379.88,-87.4 522.05,-87.4 522.05,-87.4 528.05,-87.4 534.05,-93.4 534.05,-99.4 534.05,-99.4 534.05,-122.8 534.05,-122.8 534.05,-128.8 528.05,-134.8 522.05,-134.8"/>
<text xml:space="preserve" text-anchor="middle" x="450.96" y="-115.25" font-family="Helvetica,sans-Serif" font-size="13.00">9. Unified annotation</text>
<text xml:space="preserve" text-anchor="middle" x="450.96" y="-98.75" font-family="Helvetica,sans-Serif" font-size="13.00">(2 rules)</text>
</a>
</g>
</g>
<!-- RepeatMasker similarity annotation&#45;&gt;Unified annotation -->
<g id="edge10" class="edge">
<title>RepeatMasker similarity annotation&#45;&gt;Unified annotation</title>
<path fill="none" stroke="#777777" stroke-width="1.3" d="M450.96,-174.61C450.96,-165.59 450.96,-155.06 450.96,-145.23"/>
<polygon fill="#777777" stroke="#777777" stroke-width="1.3" points="453.76,-145.31 450.96,-137.31 448.16,-145.31 453.76,-145.31"/>
</g>
<!-- Density tracks, outputs &amp; reports -->
<g id="node10" class="node">
<title>Density tracks, outputs &amp; reports</title>
<g id="a_node10"><a xlink:title="make_summary_statistics_and_split_by_class — Compute summary_statistics.csv and the per&#45;class split GFFs from&#10;make_bigwig_density — (no description)&#10;calculate_bigwig_density — Genome&#45;wide total density (from the Unified annotation — all repeats,&#10;make_unified_tandem_per_family_bigwig — Per&#45;family tandem density BigWigs from the Unified annotation.&#10;make_tidecluster_tandem_per_family_bigwig — Per&#45;family STRUCTURAL tandem density BigWigs (TideCluster clustering&#10;make_track_for_masking — (no description)&#10;make_track_for_Ns — (no description)&#10;add_top_level_outputs — (no description)&#10;add_html_outputs — (no description)&#10;make_summary_plots — (no description)&#10;make_benchmark_report — (no description)&#10;make_repeat_report — (no description)">
<path fill="#e9e4de" stroke="#555555" stroke-width="1.2" d="M574.92,-47.4C574.92,-47.4 327,-47.4 327,-47.4 321,-47.4 315,-41.4 315,-35.4 315,-35.4 315,-12 315,-12 315,-6 321,0 327,0 327,0 574.92,0 574.92,0 580.92,0 586.92,-6 586.92,-12 586.92,-12 586.92,-35.4 586.92,-35.4 586.92,-41.4 580.92,-47.4 574.92,-47.4"/>
<text xml:space="preserve" text-anchor="middle" x="450.96" y="-27.85" font-family="Helvetica,sans-Serif" font-size="13.00">10. Density tracks, outputs &amp; reports</text>
<text xml:space="preserve" text-anchor="middle" x="450.96" y="-11.35" font-family="Helvetica,sans-Serif" font-size="13.00">(12 rules)</text>
</a>
</g>
</g>
<!-- Unified annotation&#45;&gt;Density tracks, outputs &amp; reports -->
<g id="edge11" class="edge">
<title>Unified annotation&#45;&gt;Density tracks, outputs &amp; reports</title>
<path fill="none" stroke="#777777" stroke-width="1.3" d="M450.96,-87.21C450.96,-78.19 450.96,-67.66 450.96,-57.83"/>
<polygon fill="#777777" stroke="#777777" stroke-width="1.3" points="453.76,-57.91 450.96,-49.91 448.16,-57.91 453.76,-57.91"/>
</g>
</g>
</svg>
