<?xml version="1.0" encoding="UTF-8" standalone="no"?>
<!DOCTYPE svg PUBLIC "-//W3C//DTD SVG 1.1//EN"
 "http://www.w3.org/Graphics/SVG/1.1/DTD/svg11.dtd">
<!-- Generated by graphviz version 14.1.2 (20260126.1125)
 -->
<!-- Title: pipeline Pages: 1 -->
<svg width="730pt" height="723pt"
 viewBox="0.00 0.00 730.00 723.00" xmlns="http://www.w3.org/2000/svg" xmlns:xlink="http://www.w3.org/1999/xlink">
<g id="graph0" class="graph" transform="scale(1 1) rotate(0) translate(4 719.2)">
<title>pipeline</title>
<polygon fill="white" stroke="none" points="-4,4 -4,-719.2 726.42,-719.2 726.42,4 -4,4"/>
<text xml:space="preserve" text-anchor="middle" x="361.21" y="-692.2" font-family="Helvetica,sans-Serif" font-size="20.00">Assembly Repeat Annotation Pipeline</text>
<text xml:space="preserve" text-anchor="middle" x="361.21" y="-668.2" font-family="Helvetica,sans-Serif" font-size="20.00">(stage overview — hover any box for its rules)</text>
<!-- Input preparation -->
<g id="node1" class="node">
<title>Input preparation</title>
<g id="a_node1"><a xlink:title="clean_genome_fasta — Clean FASTA headers by removing everything after the first whitespace character.&#10;index_genome_fasta — Create FASTA index (.fai) for the cleaned genome.&#10;calculate_seqlengths — (no description)">
<path fill="#e8eef7" stroke="#555555" stroke-width="1.2" d="M530.3,-659.2C530.3,-659.2 395.63,-659.2 395.63,-659.2 389.63,-659.2 383.63,-653.2 383.63,-647.2 383.63,-647.2 383.63,-623.8 383.63,-623.8 383.63,-617.8 389.63,-611.8 395.63,-611.8 395.63,-611.8 530.3,-611.8 530.3,-611.8 536.3,-611.8 542.3,-617.8 542.3,-623.8 542.3,-623.8 542.3,-647.2 542.3,-647.2 542.3,-653.2 536.3,-659.2 530.3,-659.2"/>
<text xml:space="preserve" text-anchor="middle" x="462.96" y="-639.65" font-family="Helvetica,sans-Serif" font-size="13.00">1. Input preparation</text>
<text xml:space="preserve" text-anchor="middle" x="462.96" y="-623.15" font-family="Helvetica,sans-Serif" font-size="13.00">(3 rules)</text>
</a>
</g>
</g>
<!-- DANTE protein&#45;domain annotation -->
<g id="node2" class="node">
<title>DANTE protein&#45;domain annotation</title>
<g id="a_node2"><a xlink:title="dante — (no description)&#10;filter_dante — (no description)">
<path fill="#dce9d5" stroke="#555555" stroke-width="1.2" d="M497.17,-571.8C497.17,-571.8 250.75,-571.8 250.75,-571.8 244.75,-571.8 238.75,-565.8 238.75,-559.8 238.75,-559.8 238.75,-536.4 238.75,-536.4 238.75,-530.4 244.75,-524.4 250.75,-524.4 250.75,-524.4 497.17,-524.4 497.17,-524.4 503.17,-524.4 509.17,-530.4 509.17,-536.4 509.17,-536.4 509.17,-559.8 509.17,-559.8 509.17,-565.8 503.17,-571.8 497.17,-571.8"/>
<text xml:space="preserve" text-anchor="middle" x="373.96" y="-552.25" font-family="Helvetica,sans-Serif" font-size="13.00">2. DANTE protein&#45;domain annotation</text>
<text xml:space="preserve" text-anchor="middle" x="373.96" y="-535.75" font-family="Helvetica,sans-Serif" font-size="13.00">(2 rules)</text>
</a>
</g>
</g>
<!-- Input preparation&#45;&gt;DANTE protein&#45;domain annotation -->
<g id="edge1" class="edge">
<title>Input preparation&#45;&gt;DANTE protein&#45;domain annotation</title>
<path fill="none" stroke="#777777" stroke-width="1.3" d="M439.11,-611.61C428.72,-601.64 416.4,-589.82 405.28,-579.16"/>
<polygon fill="#777777" stroke="#777777" stroke-width="1.3" points="407.32,-577.23 399.61,-573.71 403.44,-581.27 407.32,-577.23"/>
</g>
<!-- Tandem repeats (TideCluster) -->
<g id="node6" class="node">
<title>Tandem repeats (TideCluster)</title>
<g id="a_node6"><a xlink:title="tidecluster_long — (no description)&#10;tidecluster_short — (no description)&#10;tidecluster_reannotate — (no description)&#10;merge_tidecluster_default_and_short — (no description)">
<path fill="#d6ecec" stroke="#555555" stroke-width="1.2" d="M710.42,-397C710.42,-397 495.5,-397 495.5,-397 489.5,-397 483.5,-391 483.5,-385 483.5,-385 483.5,-361.6 483.5,-361.6 483.5,-355.6 489.5,-349.6 495.5,-349.6 495.5,-349.6 710.42,-349.6 710.42,-349.6 716.42,-349.6 722.42,-355.6 722.42,-361.6 722.42,-361.6 722.42,-385 722.42,-385 722.42,-391 716.42,-397 710.42,-397"/>
<text xml:space="preserve" text-anchor="middle" x="602.96" y="-377.45" font-family="Helvetica,sans-Serif" font-size="13.00">6. Tandem repeats (TideCluster)</text>
<text xml:space="preserve" text-anchor="middle" x="602.96" y="-360.95" font-family="Helvetica,sans-Serif" font-size="13.00">(4 rules)</text>
</a>
</g>
</g>
<!-- Input preparation&#45;&gt;Tandem repeats (TideCluster) -->
<g id="edge2" class="edge">
<title>Input preparation&#45;&gt;Tandem repeats (TideCluster)</title>
<path fill="none" stroke="#777777" stroke-width="1.3" d="M489.74,-611.43C501.4,-600.34 514.53,-586.32 523.96,-571.8 558.62,-518.44 582.41,-447.45 594.26,-406.72"/>
<polygon fill="#777777" stroke="#777777" stroke-width="1.3" points="596.91,-407.65 596.41,-399.19 591.52,-406.11 596.91,-407.65"/>
</g>
<!-- LTR retrotransposons (DANTE_LTR) -->
<g id="node3" class="node">
<title>LTR retrotransposons (DANTE_LTR)</title>
<g id="a_node3"><a xlink:title="dante_ltr — (no description)&#10;make_library_of_ltrs — (no description)">
<path fill="#f6e7cf" stroke="#555555" stroke-width="1.2" d="M259.92,-484.4C259.92,-484.4 12,-484.4 12,-484.4 6,-484.4 0,-478.4 0,-472.4 0,-472.4 0,-449 0,-449 0,-443 6,-437 12,-437 12,-437 259.92,-437 259.92,-437 265.92,-437 271.92,-443 271.92,-449 271.92,-449 271.92,-472.4 271.92,-472.4 271.92,-478.4 265.92,-484.4 259.92,-484.4"/>
<text xml:space="preserve" text-anchor="middle" x="135.96" y="-464.85" font-family="Helvetica,sans-Serif" font-size="13.00">3. LTR retrotransposons (DANTE_LTR)</text>
<text xml:space="preserve" text-anchor="middle" x="135.96" y="-448.35" font-family="Helvetica,sans-Serif" font-size="13.00">(2 rules)</text>
</a>
</g>
</g>
<!-- DANTE protein&#45;domain annotation&#45;&gt;LTR retrotransposons (DANTE_LTR) -->
<g id="edge3" class="edge">
<title>DANTE protein&#45;domain annotation&#45;&gt;LTR retrotransposons (DANTE_LTR)</title>
<path fill="none" stroke="#777777" stroke-width="1.3" d="M309.24,-523.88C278.55,-512.86 241.72,-499.65 209.93,-488.24"/>
<polygon fill="#777777" stroke="#777777" stroke-width="1.3" points="210.99,-485.65 202.52,-485.58 209.1,-490.92 210.99,-485.65"/>
</g>
<!-- TIR DNA transposons (DANTE_TIR) -->
<g id="node4" class="node">
<title>TIR DNA transposons (DANTE_TIR)</title>
<g id="a_node4"><a xlink:title="dante_tir — (no description)&#10;dante_tir_fallback — Fallback TIR detection using TPase domain flanking&#45;region analysis.&#10;merge_dante_tir_with_fallback — Merge primary DANTE_TIR and fallback annotations.&#10;make_tir_combined_library — Build the TIR repeat library from primary DANTE_TIR elements only.&#10;build_fallback_tir_library — Build the optional DANTE_TIR_FALLBACK&#45;derived library.">
<path fill="#f3d9d5" stroke="#555555" stroke-width="1.2" d="M383.8,-397C383.8,-397 138.12,-397 138.12,-397 132.12,-397 126.13,-391 126.13,-385 126.13,-385 126.13,-361.6 126.13,-361.6 126.13,-355.6 132.13,-349.6 138.13,-349.6 138.13,-349.6 383.8,-349.6 383.8,-349.6 389.8,-349.6 395.8,-355.6 395.8,-361.6 395.8,-361.6 395.8,-385 395.8,-385 395.8,-391 389.8,-397 383.8,-397"/>
<text xml:space="preserve" text-anchor="middle" x="260.96" y="-377.45" font-family="Helvetica,sans-Serif" font-size="13.00">4. TIR DNA transposons (DANTE_TIR)</text>
<text xml:space="preserve" text-anchor="middle" x="260.96" y="-360.95" font-family="Helvetica,sans-Serif" font-size="13.00">(5 rules)</text>
</a>
</g>
</g>
<!-- DANTE protein&#45;domain annotation&#45;&gt;TIR DNA transposons (DANTE_TIR) -->
<g id="edge4" class="edge">
<title>DANTE protein&#45;domain annotation&#45;&gt;TIR DNA transposons (DANTE_TIR)</title>
<path fill="none" stroke="#777777" stroke-width="1.3" d="M358.95,-524.15C339.03,-493.69 303.76,-439.75 281.41,-405.58"/>
<polygon fill="#777777" stroke="#777777" stroke-width="1.3" points="283.83,-404.15 277.1,-398.99 279.14,-407.22 283.83,-404.15"/>
</g>
<!-- LINEs (DANTE_LINE) -->
<g id="node5" class="node">
<title>LINEs (DANTE_LINE)</title>
<g id="a_node5"><a xlink:title="dante_line — (no description)">
<path fill="#e7dced" stroke="#555555" stroke-width="1.2" d="M523.55,-484.4C523.55,-484.4 372.38,-484.4 372.38,-484.4 366.38,-484.4 360.38,-478.4 360.38,-472.4 360.38,-472.4 360.38,-449 360.38,-449 360.38,-443 366.38,-437 372.38,-437 372.38,-437 523.55,-437 523.55,-437 529.55,-437 535.55,-443 535.55,-449 535.55,-449 535.55,-472.4 535.55,-472.4 535.55,-478.4 529.55,-484.4 523.55,-484.4"/>
<text xml:space="preserve" text-anchor="middle" x="447.96" y="-464.85" font-family="Helvetica,sans-Serif" font-size="13.00">5. LINEs (DANTE_LINE)</text>
<text xml:space="preserve" text-anchor="middle" x="447.96" y="-448.35" font-family="Helvetica,sans-Serif" font-size="13.00">(1 rule)</text>
</a>
</g>
</g>
<!-- DANTE protein&#45;domain annotation&#45;&gt;LINEs (DANTE_LINE) -->
<g id="edge5" class="edge">
<title>DANTE protein&#45;domain annotation&#45;&gt;LINEs (DANTE_LINE)</title>
<path fill="none" stroke="#777777" stroke-width="1.3" d="M393.79,-524.21C402.27,-514.43 412.28,-502.87 421.39,-492.37"/>
<polygon fill="#777777" stroke="#777777" stroke-width="1.3" points="423.41,-494.31 426.53,-486.43 419.17,-490.65 423.41,-494.31"/>
</g>
<!-- LTR retrotransposons (DANTE_LTR)&#45;&gt;TIR DNA transposons (DANTE_TIR) -->
<g id="edge6" class="edge">
<title>LTR retrotransposons (DANTE_LTR)&#45;&gt;TIR DNA transposons (DANTE_TIR)</title>
<path fill="none" stroke="#777777" stroke-width="1.3" d="M169.79,-436.59C184.93,-426.24 202.95,-413.93 218.95,-403"/>
<polygon fill="#777777" stroke="#777777" stroke-width="1.3" points="220.46,-405.36 225.48,-398.54 217.3,-400.74 220.46,-405.36"/>
</g>
<!-- Repeat library construction -->
<g id="node7" class="node">
<title>Repeat library construction</title>
<g id="a_node7"><a xlink:title="make_subclass_2_library — (no description)&#10;filter_ltr_rt_library — (no description)&#10;concatenate_libraries — (no description)&#10;reduce_library — Per&#45;classification CAP3 / mmseqs2 dedup of the combined library.">
<path fill="#ede3d0" stroke="#555555" stroke-width="1.2" d="M539.55,-309.6C539.55,-309.6 340.38,-309.6 340.38,-309.6 334.38,-309.6 328.38,-303.6 328.38,-297.6 328.38,-297.6 328.38,-274.2 328.38,-274.2 328.38,-268.2 334.38,-262.2 340.38,-262.2 340.38,-262.2 539.55,-262.2 539.55,-262.2 545.55,-262.2 551.55,-268.2 551.55,-274.2 551.55,-274.2 551.55,-297.6 551.55,-297.6 551.55,-303.6 545.55,-309.6 539.55,-309.6"/>
<text xml:space="preserve" text-anchor="middle" x="439.96" y="-290.05" font-family="Helvetica,sans-Serif" font-size="13.00">7. Repeat library construction</text>
<text xml:space="preserve" text-anchor="middle" x="439.96" y="-273.55" font-family="Helvetica,sans-Serif" font-size="13.00">(4 rules)</text>
</a>
</g>
</g>
<!-- TIR DNA transposons (DANTE_TIR)&#45;&gt;Repeat library construction -->
<g id="edge7" class="edge">
<title>TIR DNA transposons (DANTE_TIR)&#45;&gt;Repeat library construction</title>
<path fill="none" stroke="#777777" stroke-width="1.3" d="M309.4,-349.19C331.89,-338.46 358.8,-325.62 382.33,-314.39"/>
<polygon fill="#777777" stroke="#777777" stroke-width="1.3" points="383.38,-317 389.39,-311.02 380.97,-311.94 383.38,-317"/>
</g>
<!-- LINEs (DANTE_LINE)&#45;&gt;Repeat library construction -->
<g id="edge8" class="edge">
<title>LINEs (DANTE_LINE)&#45;&gt;Repeat library construction</title>
<path fill="none" stroke="#777777" stroke-width="1.3" d="M446.9,-436.75C445.51,-406.67 443.05,-353.72 441.47,-319.49"/>
<polygon fill="#777777" stroke="#777777" stroke-width="1.3" points="444.28,-319.77 441.12,-311.91 438.69,-320.03 444.28,-319.77"/>
</g>
<!-- RepeatMasker similarity annotation -->
<g id="node8" class="node">
<title>RepeatMasker similarity annotation</title>
<g id="a_node8"><a xlink:title="repeatmasker — (no description)&#10;subtract_satellites_from_rm — (no description)&#10;merge_rm_and_dante — (no description)">
<path fill="#f1d9e6" stroke="#555555" stroke-width="1.2" d="M644.92,-222.2C644.92,-222.2 391,-222.2 391,-222.2 385,-222.2 379,-216.2 379,-210.2 379,-210.2 379,-186.8 379,-186.8 379,-180.8 385,-174.8 391,-174.8 391,-174.8 644.92,-174.8 644.92,-174.8 650.92,-174.8 656.92,-180.8 656.92,-186.8 656.92,-186.8 656.92,-210.2 656.92,-210.2 656.92,-216.2 650.92,-222.2 644.92,-222.2"/>
<text xml:space="preserve" text-anchor="middle" x="517.96" y="-202.65" font-family="Helvetica,sans-Serif" font-size="13.00">8. RepeatMasker similarity annotation</text>
<text xml:space="preserve" text-anchor="middle" x="517.96" y="-186.15" font-family="Helvetica,sans-Serif" font-size="13.00">(3 rules)</text>
</a>
</g>
</g>
<!-- Tandem repeats (TideCluster)&#45;&gt;RepeatMasker similarity annotation -->
<g id="edge9" class="edge">
<title>Tandem repeats (TideCluster)&#45;&gt;RepeatMasker similarity annotation</title>
<path fill="none" stroke="#777777" stroke-width="1.3" d="M597.53,-349.05C591.64,-326.12 581.02,-290.51 565.96,-262.2 560.07,-251.12 552.25,-239.95 544.64,-230.17"/>
<polygon fill="#777777" stroke="#777777" stroke-width="1.3" points="547.04,-228.68 539.86,-224.18 542.67,-232.18 547.04,-228.68"/>
</g>
<!-- Repeat library construction&#45;&gt;RepeatMasker similarity annotation -->
<g id="edge10" class="edge">
<title>Repeat library construction&#45;&gt;RepeatMasker similarity annotation</title>
<path fill="none" stroke="#777777" stroke-width="1.3" d="M460.86,-262.01C469.88,-252.14 480.56,-240.45 490.23,-229.86"/>
<polygon fill="#777777" stroke="#777777" stroke-width="1.3" points="492.07,-231.99 495.4,-224.2 487.94,-228.22 492.07,-231.99"/>
</g>
<!-- Unified annotation -->
<g id="node9" class="node">
<title>Unified annotation</title>
<g id="a_node9"><a xlink:title="make_unified_annotation — Produce a single, tier&#45;prioritised repeat annotation GFF3 from all pipeline layers.&#10;validate_classifications — Fail fast if any upstream tool emits a classification not listed in">
<path fill="#dfe7ee" stroke="#555555" stroke-width="1.2" d="M589.05,-134.8C589.05,-134.8 446.88,-134.8 446.88,-134.8 440.88,-134.8 434.88,-128.8 434.88,-122.8 434.88,-122.8 434.88,-99.4 434.88,-99.4 434.88,-93.4 440.88,-87.4 446.88,-87.4 446.88,-87.4 589.05,-87.4 589.05,-87.4 595.05,-87.4 601.05,-93.4 601.05,-99.4 601.05,-99.4 601.05,-122.8 601.05,-122.8 601.05,-128.8 595.05,-134.8 589.05,-134.8"/>
<text xml:space="preserve" text-anchor="middle" x="517.96" y="-115.25" font-family="Helvetica,sans-Serif" font-size="13.00">9. Unified annotation</text>
<text xml:space="preserve" text-anchor="middle" x="517.96" y="-98.75" font-family="Helvetica,sans-Serif" font-size="13.00">(2 rules)</text>
</a>
</g>
</g>
<!-- RepeatMasker similarity annotation&#45;&gt;Unified annotation -->
<g id="edge11" class="edge">
<title>RepeatMasker similarity annotation&#45;&gt;Unified annotation</title>
<path fill="none" stroke="#777777" stroke-width="1.3" d="M517.96,-174.61C517.96,-165.59 517.96,-155.06 517.96,-145.23"/>
<polygon fill="#777777" stroke="#777777" stroke-width="1.3" points="520.76,-145.31 517.96,-137.31 515.16,-145.31 520.76,-145.31"/>
</g>
<!-- Density tracks, outputs &amp; reports -->
<g id="node10" class="node">
<title>Density tracks, outputs &amp; reports</title>
<g id="a_node10"><a xlink:title="make_summary_statistics_and_split_by_class — Compute summary_statistics.csv and the per&#45;class split GFFs from&#10;make_bigwig_density — (no description)&#10;calculate_bigwig_density — Genome&#45;wide total density (from the Unified annotation — all repeats,&#10;make_unified_tandem_per_family_bigwig — Per&#45;family tandem density BigWigs from the Unified annotation.&#10;make_tidecluster_tandem_per_family_bigwig — Per&#45;family STRUCTURAL tandem density BigWigs (TideCluster clustering&#10;make_track_for_masking — (no description)&#10;make_track_for_Ns — (no description)&#10;add_top_level_outputs — (no description)&#10;add_html_outputs — (no description)&#10;make_summary_plots — (no description)&#10;make_benchmark_report — (no description)&#10;make_repeat_report — (no description)">
<path fill="#e9e4de" stroke="#555555" stroke-width="1.2" d="M641.92,-47.4C641.92,-47.4 394,-47.4 394,-47.4 388,-47.4 382,-41.4 382,-35.4 382,-35.4 382,-12 382,-12 382,-6 388,0 394,0 394,0 641.92,0 641.92,0 647.92,0 653.92,-6 653.92,-12 653.92,-12 653.92,-35.4 653.92,-35.4 653.92,-41.4 647.92,-47.4 641.92,-47.4"/>
<text xml:space="preserve" text-anchor="middle" x="517.96" y="-27.85" font-family="Helvetica,sans-Serif" font-size="13.00">10. Density tracks, outputs &amp; reports</text>
<text xml:space="preserve" text-anchor="middle" x="517.96" y="-11.35" font-family="Helvetica,sans-Serif" font-size="13.00">(12 rules)</text>
</a>
</g>
</g>
<!-- Unified annotation&#45;&gt;Density tracks, outputs &amp; reports -->
<g id="edge12" class="edge">
<title>Unified annotation&#45;&gt;Density tracks, outputs &amp; reports</title>
<path fill="none" stroke="#777777" stroke-width="1.3" d="M517.96,-87.21C517.96,-78.19 517.96,-67.66 517.96,-57.83"/>
<polygon fill="#777777" stroke="#777777" stroke-width="1.3" points="520.76,-57.91 517.96,-49.91 515.16,-57.91 520.76,-57.91"/>
</g>
</g>
</svg>
